<svg width="500" height="330"><polygon class="hit" fill="rgba(172,172,172,1.0)" points="72,61 254.75632565197446,269 255.60045170624977,269 106.66666666666667,61"></polygon><polygon class="hit" fill="rgba(187,187,187,1.0)" points="366,61 266.7648304337086,269 267.5156156262131,269 396.83333333333337,61"></polygon><polygon class="hit" fill="rgba(188,188,188,1.0)" points="42.5,61 252.62571902459683,269 253.3399795320606,269 71.83333333333334,61"></polygon><polygon class="hit" fill="rgba(198,198,198,1.0)" points="96.83333333333333,61 255.62074319793913,269 256.3796449871193,269 128.33333333333331,61"></polygon><polygon class="hit" fill="rgba(198,198,198,1.0)" points="396.5,61 269.8897201538624,269 270.48223171119037,269 420.8333333333333,61"></polygon><polygon class="hit" fill="rgba(202,202,202,1.0)" points="420.5,61 273.1566503158415,269 273.66799590641216,269 441.5,61"></polygon><polygon class="hit" fill="rgba(205,205,205,1.0)" points="144.83333333333334,61 262.0612626601263,269 262.56449165402125,269 165.5,61"></polygon><polygon class="hit" fill="rgba(205,205,205,1.0)" points="345.5,61 265.665031584148,269 266.1804354730565,269 366.8333333333333,61"></polygon><polygon class="hit" fill="rgba(207,207,207,1.0)" points="396.5,61 268.79803790097753,269 269.3661996682782,269 419.8333333333333,61"></polygon><polygon class="hit" fill="rgba(209,209,209,1.0)" points="20.166666666666668,61 247.792285704203,269 248.34421427815226,269 43.16666666666667,61"></polygon><polygon class="hit" fill="rgba(209,209,209,1.0)" points="165,61 262.92162190775315,269 263.3639764265801,269 183.16666666666666,61"></polygon><polygon class="hit" fill="rgba(213,213,213,1.0)" points="23.166666666666668,61 251.85464234040305,269 252.34569643928438,269 43.16666666666667,61"></polygon><polygon class="hit" fill="rgba(213,213,213,1.0)" points="128.16666666666669,61 260.63679994353674,269 261.0385714789851,269 144.66666666666669,61"></polygon><polygon class="hit" fill="rgba(214,214,214,1.0)" points="165.5,61 259.40307724882666,269 259.83325687264005,269 183.16666666666666,61"></polygon><polygon class="hit" fill="rgba(220,220,220,1.0)" points="128.16666666666669,61 257.1994212513675,269 257.6011927868159,269 144.66666666666669,61"></polygon><polygon class="hit" fill="rgba(223,223,223,1.0)" points="183.16666666666666,61 264.1269365140982,269 264.4434837844515,269 196.16666666666666,61"></polygon><polygon class="hit" fill="rgba(235,235,235,1.0)" points="440.3333333333333,61 274.4025479055652,269 274.6176377174719,269 449.3333333333333,61"></polygon><g class="axis" transform="translate(0,60)"><g class="tick" transform="translate(20,0)" style="opacity: 1;"><line y2="-6" x2="0"></line><text y="-9" x="0" dy="1em" dx="0.8em" transform="rotate(-90)" style="text-anchor: start;">0.0b</text></g><g class="tick" transform="translate(53.333333333333336,0)" style="opacity: 1;"><line y2="-6" x2="0"></line><text y="-9" x="0" dy="1em" dx="0.8em" transform="rotate(-90)" style="text-anchor: start;">200b</text></g><g class="tick" transform="translate(86.66666666666667,0)" style="opacity: 1;"><line y2="-6" x2="0"></line><text y="-9" x="0" dy="1em" dx="0.8em" transform="rotate(-90)" style="text-anchor: start;">400b</text></g><g class="tick" transform="translate(120,0)" style="opacity: 1;"><line y2="-6" x2="0"></line><text y="-9" x="0" dy="1em" dx="0.8em" transform="rotate(-90)" style="text-anchor: start;">600b</text></g><g class="tick" transform="translate(153.33333333333334,0)" style="opacity: 1;"><line y2="-6" x2="0"></line><text y="-9" x="0" dy="1em" dx="0.8em" transform="rotate(-90)" style="text-anchor: start;">800b</text></g><g class="tick" transform="translate(186.66666666666666,0)" style="opacity: 1;"><line y2="-6" x2="0"></line><text y="-9" x="0" dy="1em" dx="0.8em" transform="rotate(-90)" style="text-anchor: start;">1.0kb</text></g><g class="tick" transform="translate(220,0)" style="opacity: 1;"><line y2="-6" x2="0"></line><text y="-9" x="0" dy="1em" dx="0.8em" transform="rotate(-90)" style="text-anchor: start;">1.2kb</text></g><g class="tick" transform="translate(253.33333333333334,0)" style="opacity: 1;"><line y2="-6" x2="0"></line><text y="-9" x="0" dy="1em" dx="0.8em" transform="rotate(-90)" style="text-anchor: start;">1.4kb</text></g><g class="tick" transform="translate(286.6666666666667,0)" style="opacity: 1;"><line y2="-6" x2="0"></line><text y="-9" x="0" dy="1em" dx="0.8em" transform="rotate(-90)" style="text-anchor: start;">1.6kb</text></g><g class="tick" transform="translate(320,0)" style="opacity: 1;"><line y2="-6" x2="0"></line><text y="-9" x="0" dy="1em" dx="0.8em" transform="rotate(-90)" style="text-anchor: start;">1.8kb</text></g><g class="tick" transform="translate(353.3333333333333,0)" style="opacity: 1;"><line y2="-6" x2="0"></line><text y="-9" x="0" dy="1em" dx="0.8em" transform="rotate(-90)" style="text-anchor: start;">2.0kb</text></g><g class="tick" transform="translate(386.6666666666667,0)" style="opacity: 1;"><line y2="-6" x2="0"></line><text y="-9" x="0" dy="1em" dx="0.8em" transform="rotate(-90)" style="text-anchor: start;">2.2kb</text></g><g class="tick" transform="translate(420,0)" style="opacity: 1;"><line y2="-6" x2="0"></line><text y="-9" x="0" dy="1em" dx="0.8em" transform="rotate(-90)" style="text-anchor: start;">2.4kb</text></g><g class="tick" transform="translate(453.3333333333333,0)" style="opacity: 1;"><line y2="-6" x2="0"></line><text y="-9" x="0" dy="1em" dx="0.8em" transform="rotate(-90)" style="text-anchor: start;">2.6kb</text></g><path class="domain" d="M20,-6V0H480V-6"></path></g><g class="axis" transform="translate(0,270)"><g class="tick" transform="translate(20,0)" style="opacity: 1;"><line y2="6" x2="0"></line><text y="9" x="0" dy="-0.4em" dx="-1em" transform="rotate(-90)" style="text-anchor: end;">0.0b</text></g><g class="tick" transform="translate(60.5829833786216,0)" style="opacity: 1;"><line y2="6" x2="0"></line><text y="9" x="0" dy="-0.4em" dx="-1em" transform="rotate(-90)" style="text-anchor: end;">10kb</text></g><g class="tick" transform="translate(101.1659667572432,0)" style="opacity: 1;"><line y2="6" x2="0"></line><text y="9" x="0" dy="-0.4em" dx="-1em" transform="rotate(-90)" style="text-anchor: end;">20kb</text></g><g class="tick" transform="translate(141.7489501358648,0)" style="opacity: 1;"><line y2="6" x2="0"></line><text y="9" x="0" dy="-0.4em" dx="-1em" transform="rotate(-90)" style="text-anchor: end;">30kb</text></g><g class="tick" transform="translate(182.3319335144864,0)" style="opacity: 1;"><line y2="6" x2="0"></line><text y="9" x="0" dy="-0.4em" dx="-1em" transform="rotate(-90)" style="text-anchor: end;">40kb</text></g><g class="tick" transform="translate(222.91491689310797,0)" style="opacity: 1;"><line y2="6" x2="0"></line><text y="9" x="0" dy="-0.4em" dx="-1em" transform="rotate(-90)" style="text-anchor: end;">50kb</text></g><g class="tick" transform="translate(263.4979002717296,0)" style="opacity: 1;"><line y2="6" x2="0"></line><text y="9" x="0" dy="-0.4em" dx="-1em" transform="rotate(-90)" style="text-anchor: end;">60kb</text></g><g class="tick" transform="translate(304.08088365035115,0)" style="opacity: 1;"><line y2="6" x2="0"></line><text y="9" x="0" dy="-0.4em" dx="-1em" transform="rotate(-90)" style="text-anchor: end;">70kb</text></g><g class="tick" transform="translate(344.6638670289728,0)" style="opacity: 1;"><line y2="6" x2="0"></line><text y="9" x="0" dy="-0.4em" dx="-1em" transform="rotate(-90)" style="text-anchor: end;">80kb</text></g><g class="tick" transform="translate(385.2468504075943,0)" style="opacity: 1;"><line y2="6" x2="0"></line><text y="9" x="0" dy="-0.4em" dx="-1em" transform="rotate(-90)" style="text-anchor: end;">90kb</text></g><g class="tick" transform="translate(425.82983378621594,0)" style="opacity: 1;"><line y2="6" x2="0"></line><text y="9" x="0" dy="-0.4em" dx="-1em" transform="rotate(-90)" style="text-anchor: end;">100kb</text></g><g class="tick" transform="translate(466.4128171648375,0)" style="opacity: 1;"><line y2="6" x2="0"></line><text y="9" x="0" dy="-0.4em" dx="-1em" transform="rotate(-90)" style="text-anchor: end;">110kb</text></g><path class="domain" d="M20,6V0H480V6"></path></g><text class="query axis-label" text-anchor="end" x="250" y="1.1em">Query</text><text class="subject axis-label" text-anchor="end" x="250" y="325">Subject</text></svg>
