<svg width="500" height="330"><polygon class="hit" fill="rgba(202,202,202,1.0)" points="253.5,61 126.0436137071651,269 141.68743509865004,269 275.3333333333333,61" style="opacity: 1;"></polygon><polygon class="hit" fill="rgba(205,205,205,1.0)" points="275,61 192.3208722741433,269 210.35306334371757,269 300.1666666666667,61" style="opacity: 1;"></polygon><polygon class="hit" fill="rgba(208,208,208,1.0)" points="253.5,61 237.34164070612667,269 252.98546209761162,269 275.3333333333333,61" style="opacity: 1;"></polygon><polygon class="hit" fill="rgba(212,212,212,1.0)" points="220,61 56.66147455867082,269 68.96157840083072,269 237.16666666666669,61" style="opacity: 1;"></polygon><polygon class="hit" fill="rgba(213,213,213,1.0)" points="329,61 397.24299065420564,269 409.06542056074767,269 345.5,61" style="opacity: 1;"></polygon><polygon class="hit" fill="rgba(218,218,218,1.0)" points="328.83333333333337,61 442.9802699896158,269 454.5638629283489,269 345,61" style="opacity: 1;"></polygon><polygon class="hit" fill="rgba(218,218,218,1.0)" points="314.33333333333337,61 378.97196261682245,269 389.48078920041536,269 329,61" style="opacity: 1;"></polygon><polygon class="hit" fill="rgba(218,218,218,1.0)" points="300.1666666666667,61 341.3551401869159,269 351.7445482866044,269 314.6666666666667,61" style="opacity: 1;"></polygon><polygon class="hit" fill="rgba(221,221,221,1.0)" points="237,61 107.53374870197302,269 119.35617860851505,269 253.5,61" style="opacity: 1;"></polygon><polygon class="hit" fill="rgba(221,221,221,1.0)" points="205.33333333333334,61 28.2398753894081,269 40.06230529595018,269 222,61" style="opacity: 1;"></polygon><polygon class="hit" fill="rgba(227,227,227,1.0)" points="275,61 301.94704049844233,269 317.47144340602284,269 300.1666666666667,61" style="opacity: 1;"></polygon><polygon class="hit" fill="rgba(231,231,231,1.0)" points="314.33333333333337,61 363.08930425752857,269 369.7767393561786,269 323.6666666666667,61" style="opacity: 1;"></polygon><polygon class="hit" fill="rgba(240,240,240,1.0)" points="237,61 75.29075804776744,269 79.47040498442368,269 242.83333333333334,61" style="opacity: 1;"></polygon><polygon class="hit" fill="rgba(241,241,241,1.0)" points="248.33333333333331,61 226.9522326064382,269 230.65420560747665,269 253.5,61" style="opacity: 1;"></polygon><g class="axis" transform="translate(0,60)"><g class="tick" transform="translate(20,0)" style="opacity: 1;"><line y2="-6" x2="0"></line><text y="-9" x="0" dy="1em" dx="0.8em" transform="rotate(-90)" style="text-anchor: start;">0.0b</text></g><g class="tick" transform="translate(53.333333333333336,0)" style="opacity: 1;"><line y2="-6" x2="0"></line><text y="-9" x="0" dy="1em" dx="0.8em" transform="rotate(-90)" style="text-anchor: start;">200b</text></g><g class="tick" transform="translate(86.66666666666667,0)" style="opacity: 1;"><line y2="-6" x2="0"></line><text y="-9" x="0" dy="1em" dx="0.8em" transform="rotate(-90)" style="text-anchor: start;">400b</text></g><g class="tick" transform="translate(120,0)" style="opacity: 1;"><line y2="-6" x2="0"></line><text y="-9" x="0" dy="1em" dx="0.8em" transform="rotate(-90)" style="text-anchor: start;">600b</text></g><g class="tick" transform="translate(153.33333333333334,0)" style="opacity: 1;"><line y2="-6" x2="0"></line><text y="-9" x="0" dy="1em" dx="0.8em" transform="rotate(-90)" style="text-anchor: start;">800b</text></g><g class="tick" transform="translate(186.66666666666666,0)" style="opacity: 1;"><line y2="-6" x2="0"></line><text y="-9" x="0" dy="1em" dx="0.8em" transform="rotate(-90)" style="text-anchor: start;">1.0kb</text></g><g class="tick" transform="translate(220,0)" style="opacity: 1;"><line y2="-6" x2="0"></line><text y="-9" x="0" dy="1em" dx="0.8em" transform="rotate(-90)" style="text-anchor: start;">1.2kb</text></g><g class="tick" transform="translate(253.33333333333334,0)" style="opacity: 1;"><line y2="-6" x2="0"></line><text y="-9" x="0" dy="1em" dx="0.8em" transform="rotate(-90)" style="text-anchor: start;">1.4kb</text></g><g class="tick" transform="translate(286.6666666666667,0)" style="opacity: 1;"><line y2="-6" x2="0"></line><text y="-9" x="0" dy="1em" dx="0.8em" transform="rotate(-90)" style="text-anchor: start;">1.6kb</text></g><g class="tick" transform="translate(320,0)" style="opacity: 1;"><line y2="-6" x2="0"></line><text y="-9" x="0" dy="1em" dx="0.8em" transform="rotate(-90)" style="text-anchor: start;">1.8kb</text></g><g class="tick" transform="translate(353.3333333333333,0)" style="opacity: 1;"><line y2="-6" x2="0"></line><text y="-9" x="0" dy="1em" dx="0.8em" transform="rotate(-90)" style="text-anchor: start;">2.0kb</text></g><g class="tick" transform="translate(386.6666666666667,0)" style="opacity: 1;"><line y2="-6" x2="0"></line><text y="-9" x="0" dy="1em" dx="0.8em" transform="rotate(-90)" style="text-anchor: start;">2.2kb</text></g><g class="tick" transform="translate(420,0)" style="opacity: 1;"><line y2="-6" x2="0"></line><text y="-9" x="0" dy="1em" dx="0.8em" transform="rotate(-90)" style="text-anchor: start;">2.4kb</text></g><g class="tick" transform="translate(453.3333333333333,0)" style="opacity: 1;"><line y2="-6" x2="0"></line><text y="-9" x="0" dy="1em" dx="0.8em" transform="rotate(-90)" style="text-anchor: start;">2.6kb</text></g><path class="domain" d="M20,-6V0H480V-6"></path></g><g class="axis" transform="translate(0,270)"><g class="tick" transform="translate(480,0)" style="opacity: 1;"><line y2="6" x2="0"></line><text y="9" x="0" dy="-0.4em" dx="-1em" transform="rotate(-90)" style="text-anchor: end;">0.0b</text></g><g class="tick" transform="translate(420.2907580477674,0)" style="opacity: 1;"><line y2="6" x2="0"></line><text y="9" x="0" dy="-0.4em" dx="-1em" transform="rotate(-90)" style="text-anchor: end;">500b</text></g><g class="tick" transform="translate(360.58151609553477,0)" style="opacity: 1;"><line y2="6" x2="0"></line><text y="9" x="0" dy="-0.4em" dx="-1em" transform="rotate(-90)" style="text-anchor: end;">1.0kb</text></g><g class="tick" transform="translate(300.8722741433022,0)" style="opacity: 1;"><line y2="6" x2="0"></line><text y="9" x="0" dy="-0.4em" dx="-1em" transform="rotate(-90)" style="text-anchor: end;">1.5kb</text></g><g class="tick" transform="translate(241.1630321910696,0)" style="opacity: 1;"><line y2="6" x2="0"></line><text y="9" x="0" dy="-0.4em" dx="-1em" transform="rotate(-90)" style="text-anchor: end;">2.0kb</text></g><g class="tick" transform="translate(181.45379023883697,0)" style="opacity: 1;"><line y2="6" x2="0"></line><text y="9" x="0" dy="-0.4em" dx="-1em" transform="rotate(-90)" style="text-anchor: end;">2.5kb</text></g><g class="tick" transform="translate(121.74454828660436,0)" style="opacity: 1;"><line y2="6" x2="0"></line><text y="9" x="0" dy="-0.4em" dx="-1em" transform="rotate(-90)" style="text-anchor: end;">3.0kb</text></g><g class="tick" transform="translate(62.03530633437174,0)" style="opacity: 1;"><line y2="6" x2="0"></line><text y="9" x="0" dy="-0.4em" dx="-1em" transform="rotate(-90)" style="text-anchor: end;">3.5kb</text></g><path class="domain" d="M20,6V0H480V6"></path></g><text class="query axis-label" text-anchor="end" x="250" y="1.1em">Query</text><text class="subject axis-label" text-anchor="end" x="250" y="325">Subject</text></svg>
